<svg id="Lager_1" data-name="Lager 1" xmlns="http://www.w3.org/2000/svg" viewBox="0 0 79 79"><defs><style>.cls-1{fill:#43619c;}</style></defs><title>fb</title><g id="_02-CIRCLE-COLOR" data-name="02-CIRCLE-COLOR"><g id="Facebook"><path class="cls-1" d="M369.1,328.3a39.5,39.5,0,1,1,39.5-39.5A39.52,39.52,0,0,1,369.1,328.3Zm0-76a36.5,36.5,0,1,0,36.5,36.5A36.58,36.58,0,0,0,369.1,252.3Z" transform="translate(-329.6 -249.3)"/><path id="Facebook-2" data-name="Facebook" class="cls-1" d="M387.2,304.4a2,2,0,0,1-2,2h-9.4V292.2h4.8l0.7-5.5h-5.5v-3.5c0-1.6.4-2.7,2.7-2.7h2.9v-5a32.75,32.75,0,0,0-4.3-.2c-4.2,0-7.1,2.6-7.1,7.3v4.1h-4.8v5.5H370v14.2H352.4a2,2,0,0,1-2-2V271.7a2,2,0,0,1,2-2h32.7a2,2,0,0,1,2,2v32.7h0.1Z" transform="translate(-329.6 -249.3)"/></g></g></svg>