<svg id="Lager_1" data-name="Lager 1" xmlns="http://www.w3.org/2000/svg" viewBox="0 0 79 79"><defs><style>.cls-1{fill:#187fb8;}</style></defs><title>linkedin</title><g id="_02-CIRCLE-COLOR" data-name="02-CIRCLE-COLOR"><g id="LinKeDin"><g id="LinkedIn-2" data-name="LinkedIn"><rect class="cls-1" x="22.7" y="33.8" width="7.2" height="22.8"/><path class="cls-1" d="M764.1,283.8c-4.1,0-6.7,2.2-7.2,3.8V284h-8.1c0.1,1.9,0,22.8,0,22.8h8.1V294.5a5.55,5.55,0,0,1,.2-1.9,4.08,4.08,0,0,1,3.9-2.8c2.8,0,4.1,2.1,4.1,5.2v11.8h8.2V294.1C773.2,287.1,769.2,283.8,764.1,283.8Z" transform="translate(-714.6 -250.3)"/><path class="cls-1" d="M740.7,273.3c-2.7,0-4.4,1.7-4.4,4s1.7,3.9,4.3,3.9h0.1c2.7,0,4.4-1.7,4.4-4A4,4,0,0,0,740.7,273.3Z" transform="translate(-714.6 -250.3)"/></g><path class="cls-1" d="M754.1,329.3a39.5,39.5,0,1,1,39.5-39.5A39.52,39.52,0,0,1,754.1,329.3Zm0-76a36.5,36.5,0,1,0,36.5,36.5A36.58,36.58,0,0,0,754.1,253.3Z" transform="translate(-714.6 -250.3)"/></g></g></svg>