<svg id="Lager_1" data-name="Lager 1" xmlns="http://www.w3.org/2000/svg" viewBox="0 0 79 79"><defs><style>.cls-1{fill:#24a9e6;}</style></defs><title>twitter</title><g id="_02-CIRCLE-COLOR" data-name="02-CIRCLE-COLOR"><g id="Twitter"><path id="Twitter-2" data-name="Twitter" class="cls-1" d="M900.4,274.6a13.91,13.91,0,0,1-4.9,1.9,7.71,7.71,0,0,0-5.6-2.5,7.81,7.81,0,0,0-7.7,7.9,11,11,0,0,0,.2,1.8,21.65,21.65,0,0,1-15.8-8.2,7.67,7.67,0,0,0-1,4,8.33,8.33,0,0,0,3.4,6.6,7.11,7.11,0,0,1-3.5-1v0.1a7.75,7.75,0,0,0,6.2,7.7,6.45,6.45,0,0,1-2,.3,6.15,6.15,0,0,1-1.4-.1,7.84,7.84,0,0,0,7.2,5.5A15.09,15.09,0,0,1,866,302a10.87,10.87,0,0,1-1.8-.1,21.54,21.54,0,0,0,11.8,3.5c14.1,0,21.9-12,21.9-22.4v-1a14.87,14.87,0,0,0,3.8-4.1,13.72,13.72,0,0,1-4.4,1.2A11,11,0,0,0,900.4,274.6Z" transform="translate(-843.6 -250.3)"/><path class="cls-1" d="M883.1,329.3a39.5,39.5,0,1,1,39.5-39.5A39.52,39.52,0,0,1,883.1,329.3Zm0-76a36.5,36.5,0,1,0,36.5,36.5A36.58,36.58,0,0,0,883.1,253.3Z" transform="translate(-843.6 -250.3)"/></g></g></svg>